<?xml version="1.0" encoding="utf-8"?>
<!-- Generator: Adobe Illustrator 23.0.2, SVG Export Plug-In . SVG Version: 6.00 Build 0)  -->
<svg version="1.1" id="Calque_1" xmlns="http://www.w3.org/2000/svg" xmlns:xlink="http://www.w3.org/1999/xlink" x="0px" y="0px"
	 viewBox="0 0 279 254" style="enable-background:new 0 0 279 254;" xml:space="preserve">
<style type="text/css">
	.st0{fill:#FF0000;}
</style>
<g>
	<path class="st0" d="M76.9,90.1c-0.1,0.1-0.3,0.2-0.4,0.3c-1.7,1.1-3.9,0.6-4.9-1.1c-4.4-6.8-11.2-11.5-19.2-13.2
		c-7.9-1.7-16.1-0.2-22.9,4.2c-1.7,1.1-3.9,0.6-4.9-1.1c-1.1-1.7-0.6-3.9,1.1-4.9c8.4-5.4,18.5-7.3,28.3-5.2
		c9.8,2.1,18.2,7.9,23.7,16.4C78.5,87,78.2,89,76.9,90.1z"/>
	<path class="st0" d="M51.4,49.8c-7.6,6.5-17.3,9.7-27.3,9c-2-0.1-3.5-1.9-3.3-3.8c0.1-2,1.9-3.4,3.8-3.3c8.1,0.6,16-2,22.1-7.3
		s9.9-12.7,10.5-20.8c0.1-2,1.9-3.4,3.8-3.3c2,0.1,3.5,1.9,3.3,3.8C63.6,34.2,59,43.3,51.4,49.8z"/>
	<path class="st0" d="M91.2,77.8c-1.2,1-3,1.2-4.4,0.2c-8.2-5.8-13.6-14.5-15.3-24.4c-1.7-9.9,0.6-19.9,6.4-28c1.1-1.6,3.4-2,5-0.9
		c1.6,1.1,2,3.4,0.9,5c-4.7,6.6-6.5,14.7-5.2,22.7c1.4,8,5.8,15,12.4,19.7c1.6,1.1,2,3.4,0.9,5C91.6,77.4,91.4,77.6,91.2,77.8z"/>
	<path class="st0" d="M257.9,97.8c0,0.2,0,0.3,0,0.5c-0.2,2-1.9,3.4-3.9,3.2c-8.1-0.7-16,1.7-22.2,7c-6.2,5.2-10.1,12.5-10.8,20.6
		c-0.2,2-1.9,3.4-3.9,3.2c-2-0.2-3.4-1.9-3.2-3.9c0.9-10,5.6-19.1,13.3-25.5c7.7-6.4,17.5-9.5,27.5-8.6
		C256.5,94.5,257.8,96,257.9,97.8z"/>
	<path class="st0" d="M210.5,93.1c0.5,10-3,19.6-9.7,27.1c-1.3,1.5-3.6,1.6-5.1,0.2c-1.5-1.3-1.6-3.6-0.2-5.1
		c5.5-6,8.3-13.8,7.9-21.9s-3.9-15.6-9.9-21.1c-1.5-1.3-1.6-3.6-0.2-5.1c1.3-1.5,3.6-1.6,5.1-0.2C205.6,73.8,210,83,210.5,93.1z"/>
	<path class="st0" d="M257,78.9c0.1,1.6-0.9,3.1-2.5,3.6c-9.6,2.9-19.8,1.9-28.6-2.9s-15.3-12.7-18.2-22.3c-0.6-1.9,0.5-3.9,2.4-4.5
		c1.9-0.6,3.9,0.5,4.5,2.4c2.3,7.8,7.6,14.2,14.7,18c7.2,3.9,15.4,4.7,23.2,2.4c1.9-0.6,3.9,0.5,4.5,2.4
		C256.9,78.3,257,78.6,257,78.9z"/>
	<path class="st0" d="M158.7,216.9c-0.1,0.2-0.1,0.3-0.2,0.5c-0.9,1.8-3,2.5-4.8,1.7c-7.3-3.6-15.6-4-23.2-1.4
		c-7.7,2.7-13.9,8.1-17.4,15.5c-0.9,1.8-3,2.5-4.8,1.7c-1.8-0.9-2.5-3-1.7-4.8c4.4-9,12-15.8,21.5-19.1c9.5-3.3,19.7-2.7,28.7,1.7
		C158.5,213.4,159.3,215.2,158.7,216.9z"/>
	<path class="st0" d="M116.1,195.7c-3.1,9.5-9.8,17.3-18.7,21.9c-1.8,0.9-3.9,0.2-4.8-1.6c-0.9-1.8-0.2-3.9,1.6-4.8
		c7.2-3.7,12.6-10,15.1-17.7c2.5-7.7,1.9-16-1.8-23.2c-0.9-1.8-0.2-3.9,1.6-4.8c1.8-0.9,3.9-0.2,4.8,1.6
		C118.4,175.9,119.2,186.1,116.1,195.7z"/>
	<path class="st0" d="M164.6,198.9c-0.5,1.5-2,2.6-3.7,2.5c-10-0.7-19.1-5.3-25.7-12.9s-9.8-17.3-9.1-27.3c0.1-2,1.9-3.5,3.8-3.3
		c2,0.1,3.5,1.9,3.3,3.8c-0.6,8.1,2,16,7.4,22.1c5.3,6.1,12.7,9.8,20.8,10.4c2,0.1,3.5,1.9,3.3,3.8
		C164.7,198.4,164.7,198.7,164.6,198.9z"/>
</g>
</svg>
