<?xml version="1.0" encoding="utf-8"?>
<!-- Generator: Adobe Illustrator 23.0.2, SVG Export Plug-In . SVG Version: 6.00 Build 0)  -->
<svg version="1.1" id="Calque_1" xmlns="http://www.w3.org/2000/svg" xmlns:xlink="http://www.w3.org/1999/xlink" x="0px" y="0px"
	 viewBox="0 0 279 254" style="enable-background:new 0 0 279 254;" xml:space="preserve">
<style type="text/css">
	.st0{fill:#CFECF3;}
	.st1{fill:#F9FCF8;}
	.st2{fill:#029DA6;}
</style>
<g>
	<path class="st0" d="M261.4,124.9c9.4-22.4-3.2-47.3-28.3-55.7c-11.6-3.9-23.7-3.5-34.4,0.2c-2.6-4.1-6.7-7.4-12.1-9.2
		c-6.4-2.1-13.1-1.6-18.7,0.9c-5.4-10.6-15.2-19.3-28.3-23.7c-26.2-8.8-55.4,3-65.3,26.5c-0.1,0.4-0.2,0.7-0.4,1.1
		c-15.8-3.2-32.2,4.4-38,18.3c-5.1,12.1-0.7,25.2,9.9,33c-1.9,2.4-3.5,5.1-4.7,8c-8.2,19.4,2.8,41.1,24.5,48.3
		c13.6,4.6,28.2,2.4,39.2-4.6c2.9,2.3,6.3,4.2,10.2,5.5c12.7,4.3,26.4,1.1,35.2-7.1c5.3,5.5,12.3,10,20.5,12.7
		c26.2,8.8,55.4-3,65.3-26.5c0.6-1.4,1.1-2.8,1.5-4.2C248.2,143.7,256.9,135.6,261.4,124.9z"/>
	<path class="st1" d="M261.4,117.5c9.4-22.4-3.2-47.3-28.3-55.7c-11.6-3.9-23.7-3.5-34.4,0.2c-2.6-4.1-6.7-7.4-12.1-9.2
		c-6.4-2.1-13.1-1.6-18.7,0.9c-5.4-10.6-15.2-19.3-28.3-23.7c-26.2-8.8-55.4,3-65.3,26.5c-0.1,0.4-0.2,0.7-0.4,1.1
		c-15.8-3.2-32.2,4.4-38,18.3c-5.1,12.1-0.7,25.2,9.9,33c-1.9,2.4-3.5,5.1-4.7,8c-8.2,19.4,2.8,41.1,24.5,48.3
		c13.6,4.6,28.2,2.4,39.2-4.6c2.9,2.3,6.3,4.2,10.2,5.5c12.7,4.3,26.4,1.1,35.2-7.1c5.3,5.5,12.3,10,20.5,12.7
		c26.2,8.8,55.4-3,65.3-26.5c0.6-1.4,1.1-2.8,1.5-4.2C248.2,136.2,256.9,128.1,261.4,117.5z"/>
</g>
<g>
	<path class="st0" d="M242,157.7c-1.9,0-3.7,0.3-5.4,0.8c-4.1-12.3-15.4-21.2-28.6-21.2c-12.9,0-24,8.4-28.3,20.3
		c-2.4-2-5.4-3.2-8.7-3.2c-6.5,0-12,4.7-13.5,11c-0.5-0.1-1-0.1-1.6-0.1c-7.7,0-14,6.5-14,14.6c0,8,6.3,14.6,14,14.6
		c3.6,0,6.8-1.4,9.3-3.7c1.7,9.2,9.4,16.1,18.7,16.1c3.6,0,7-1.1,9.8-2.9c5.1,4.7,11.9,7.6,19.3,7.6c10.6,0,19.9-5.9,25-14.8
		c1.4,0.3,2.8,0.5,4.2,0.5c10.5,0,19-8.9,19-19.8C261,166.5,252.5,157.7,242,157.7z"/>
	<path class="st1" d="M242,153.7c-1.9,0-3.7,0.3-5.4,0.8c-4.1-12.3-15.4-21.2-28.6-21.2c-12.9,0-24,8.4-28.3,20.3
		c-2.4-2-5.4-3.2-8.7-3.2c-6.5,0-12,4.7-13.5,11c-0.5-0.1-1-0.1-1.6-0.1c-7.7,0-14,6.5-14,14.6c0,8,6.3,14.6,14,14.6
		c3.6,0,6.8-1.4,9.3-3.7c1.7,9.2,9.4,16.1,18.7,16.1c3.6,0,7-1.1,9.8-2.9c5.1,4.7,11.9,7.6,19.3,7.6c10.6,0,19.9-5.9,25-14.8
		c1.4,0.3,2.8,0.5,4.2,0.5c10.5,0,19-8.9,19-19.8C261,162.5,252.5,153.7,242,153.7z"/>
</g>
<g>
	<path class="st0" d="M38.7,192.7c2.5,0,5-0.4,7.3-1.1c5.6,16.5,20.6,28.3,38.4,28.3c17.3,0,32.1-11.3,37.9-27.2
		c3.2,2.7,7.3,4.3,11.7,4.3c8.8,0,16.1-6.3,18.1-14.8c0.7,0.1,1.4,0.1,2.1,0.1c10.3,0,18.7-8.7,18.7-19.5c0-10.8-8.4-19.5-18.7-19.5
		c-4.8,0-9.1,1.9-12.4,4.9c-2.2-12.3-12.6-21.6-25-21.6c-4.8,0-9.3,1.4-13.2,3.9c-6.9-6.3-15.9-10.1-25.8-10.1
		c-14.2,0-26.7,7.9-33.5,19.8c-1.8-0.4-3.7-0.7-5.6-0.7c-14.1,0-25.4,11.9-25.4,26.5C13.2,180.8,24.6,192.7,38.7,192.7z"/>
	<path class="st1" d="M38.7,187.2c2.5,0,5-0.4,7.3-1.1c5.6,16.5,20.6,28.3,38.4,28.3c17.3,0,32.1-11.3,37.9-27.2
		c3.2,2.7,7.3,4.3,11.7,4.3c8.8,0,16.1-6.3,18.1-14.8c0.7,0.1,1.4,0.1,2.1,0.1c10.3,0,18.7-8.7,18.7-19.5c0-10.8-8.4-19.5-18.7-19.5
		c-4.8,0-9.1,1.9-12.4,4.9c-2.2-12.3-12.6-21.6-25-21.6c-4.8,0-9.3,1.4-13.2,3.9c-6.9-6.3-15.9-10.1-25.8-10.1
		c-14.2,0-26.7,7.9-33.5,19.8c-1.8-0.4-3.7-0.7-5.6-0.7c-14.1,0-25.4,11.9-25.4,26.5C13.2,175.3,24.6,187.2,38.7,187.2z"/>
</g>
<g>
	<path class="st2" d="M230.3,64.9"/>
	<path class="st0" d="M230.3,62.8c1.2-2.3,1.9-4.8,1.9-7.4c0-6.6-4.4-12.7-11.4-16.1c-5.6-2.6-12.4-3.2-18.5-1.6
		c-7.5-8.3-19.5-13.3-32.3-13.3c-7,0-13.9,1.5-20,4.4c-4.1,1.9-7.7,4.4-10.7,7.3c-4.5,0.2-9,1.3-12.9,3.2
		c-9.1,4.3-14.7,12.2-14.7,20.6c0,8.5,5.6,16.3,14.7,20.6c1.7,0.8,3.6,1.5,5.5,2c5.3,13.4,20.6,22.6,38.1,22.6c7,0,13.9-1.5,20-4.4
		c1.8-0.8,3.5-1.8,5.1-2.8c8.1,2.6,17.6,2,25.3-1.6C229.4,92,235,84.1,235,75.7C235,71,233.4,66.6,230.3,62.8L230.3,62.8z
		 M230.3,62.8"/>
	<path class="st1" d="M230.3,58.5c1.2-2.3,1.9-4.8,1.9-7.4c0-6.6-4.4-12.7-11.4-16.1c-5.6-2.6-12.4-3.2-18.5-1.6
		c-7.5-8.3-19.5-13.3-32.3-13.3c-7,0-13.9,1.5-20,4.4c-4.1,1.9-7.7,4.4-10.7,7.3c-4.5,0.2-9,1.3-12.9,3.2
		c-9.1,4.3-14.7,12.2-14.7,20.6c0,8.5,5.6,16.3,14.7,20.6c1.7,0.8,3.6,1.5,5.5,2c5.3,13.4,20.6,22.6,38.1,22.6c7,0,13.9-1.5,20-4.4
		c1.8-0.8,3.5-1.8,5.1-2.8c8.1,2.6,17.6,2,25.3-1.6c9.1-4.3,14.7-12.1,14.7-20.6C235,66.7,233.4,62.3,230.3,58.5L230.3,58.5z
		 M230.3,58.5"/>
</g>
</svg>
